<?xml version="1.0" encoding="utf-8"?>
<!-- Generator: Adobe Illustrator 21.1.0, SVG Export Plug-In . SVG Version: 6.00 Build 0)  -->
<svg version="1.1" id="Layer_1" xmlns="http://www.w3.org/2000/svg" xmlns:xlink="http://www.w3.org/1999/xlink" x="0px" y="0px"
	 viewBox="0 0 24 24" style="enable-background:new 0 0 24 24;" xml:space="preserve">
<path d="M1,6.4L1,5.1c0-1.6,1.3-2.9,2.9-2.9h5.4c0.8,0,1.5,0.3,2.1,0.9l1.2,1.2c0.6,0.6,1.3,0.9,2.1,0.9h5.9c1.6,0,2.9,1.3,2.9,2.9
	c0,0.1,0,0.2,0,0.3l-0.9,10.3c-0.1,1.5-1.4,2.7-2.9,2.7H4.4c-1.5,0-2.8-1.2-2.9-2.7L0.5,8.3C0.4,7.6,0.6,7,1,6.4L1,6.4z M3.4,6.6
	C2.6,6.6,2,7.2,2,8.1c0,0,0,0.1,0,0.1l0.9,10.3c0.1,0.8,0.7,1.3,1.5,1.3h15.2c0.8,0,1.4-0.6,1.5-1.3L22,8.2c0.1-0.8-0.5-1.5-1.3-1.6
	c0,0-0.1,0-0.1,0H3.4z M10.4,4.1c-0.3-0.3-0.7-0.4-1-0.4H3.9c-0.8,0-1.5,0.6-1.5,1.4l0,0.2c0.3-0.1,0.7-0.2,1-0.2h7.9L10.4,4.1
	L10.4,4.1z"/>
</svg>
